{"glyphs":{"0":{"ha":511,"x_min":0,"x_max":437,"o":"m 121 972 l 316 972 l 437 851 l 437 122 l 316 0 l 121 0 l 0 122 l 0 851 l 121 972 m 170 827 l 146 802 l 146 170 l 170 146 l 267 146 l 292 170 l 292 802 l 267 827 l 170 827 z "},"1":{"ha":342,"x_min":0,"x_max":267,"o":"m 121 973 l 267 973 l 267 0 l 121 0 l 121 851 l 0 851 l 121 973 z "},"2":{"ha":505,"x_min":0,"x_max":437,"o":"m 0 972 l 437 972 l 437 681 l 146 146 l 292 146 l 292 316 l 437 316 l 437 0 l 0 0 l 0 183 l 292 718 l 292 827 l 146 827 l 146 656 l 0 656 l 0 972 z "},"3":{"ha":515,"x_min":0,"x_max":438,"o":"m 0 972 l 438 972 l 438 681 l 332 486 l 438 292 l 438 0 l 0 0 l 0 316 l 146 316 l 146 146 l 292 146 l 292 254 l 165 486 l 292 718 l 292 827 l 146 827 l 146 656 l 0 656 l 0 972 z "},"4":{"ha":506,"x_min":0,"x_max":437,"o":"m 271 972 l 437 972 l 332 753 l 437 753 l 437 0 l 292 0 l 292 219 l 0 219 l 0 401 l 271 972 m 292 669 l 146 365 l 292 365 l 292 669 z "},"5":{"ha":509,"x_min":0,"x_max":438,"o":"m 0 972 l 438 972 l 438 827 l 146 827 l 146 656 l 365 656 l 438 584 l 438 121 l 317 0 l 122 0 l 0 121 l 0 365 l 146 365 l 146 170 l 170 146 l 268 146 l 292 170 l 292 511 l 0 511 l 0 972 z "},"6":{"ha":509,"x_min":0,"x_max":437,"o":"m 121 973 l 389 973 l 389 827 l 170 827 l 146 803 l 146 656 l 365 656 l 437 584 l 437 122 l 316 0 l 121 0 l 0 122 l 0 851 l 121 973 m 146 511 l 146 170 l 170 146 l 267 146 l 292 170 l 292 511 l 146 511 z "},"7":{"ha":504,"x_min":0,"x_max":437,"o":"m 0 972 l 437 972 l 437 827 l 155 0 l 0 0 l 283 827 l 0 827 l 0 972 z "},"8":{"ha":509,"x_min":1,"x_max":439,"o":"m 123 972 l 317 972 l 439 851 l 439 534 l 391 486 l 439 437 l 439 121 l 317 0 l 123 0 l 1 121 l 1 437 l 50 486 l 1 534 l 1 851 l 123 972 m 172 827 l 147 802 l 147 583 l 172 559 l 269 559 l 293 583 l 293 802 l 269 827 l 172 827 m 172 413 l 147 389 l 147 170 l 172 146 l 269 146 l 293 170 l 293 389 l 269 413 l 172 413 z "},"9":{"ha":511,"x_min":0,"x_max":437,"o":"m 121 973 l 316 973 l 437 851 l 437 122 l 316 0 l 49 0 l 49 146 l 267 146 l 292 170 l 292 317 l 73 317 l 0 389 l 0 851 l 121 973 m 170 827 l 146 803 l 146 463 l 292 463 l 292 803 l 267 827 l 170 827 z "},"\u0000":{"ha":0,"x_min":0,"x_max":0,"o":""}," ":{"ha":345,"x_min":0,"x_max":0,"o":""},"!":{"ha":216,"x_min":0,"x_max":146,"o":"m 0 146 l 146 146 l 146 0 l 0 0 l 0 146 m 0 972 l 146 972 l 146 267 l 97 218 l 0 218 l 0 972 z "},"\"":{"ha":385,"x_min":0,"x_max":317,"o":"m 170 973 l 317 973 l 317 681 l 170 827 l 170 973 m 0 973 l 146 973 l 146 681 l 0 827 l 0 973 z "},"#":{"ha":602,"x_min":0,"x_max":540,"o":"m 155 973 l 303 973 l 264 730 l 353 730 l 392 973 l 540 973 l 500 730 l 537 730 l 537 584 l 477 584 l 443 365 l 537 365 l 537 219 l 419 219 l 385 0 l 237 0 l 271 219 l 182 219 l 148 0 l 0 0 l 35 219 l 2 219 l 2 365 l 58 365 l 93 584 l 2 584 l 2 730 l 117 730 l 155 973 m 241 584 l 206 365 l 295 365 l 330 584 l 241 584 z "},"$":{"ha":688,"x_min":0,"x_max":583,"o":"m 219 973 l 365 973 l 365 876 l 462 876 l 583 754 l 583 657 l 437 657 l 437 705 l 413 730 l 365 730 l 365 559 l 511 559 l 583 487 l 583 219 l 462 98 l 365 98 l 365 0 l 219 0 l 219 98 l 121 98 l 0 219 l 0 317 l 146 317 l 146 268 l 170 243 l 219 243 l 219 414 l 73 414 l 0 487 l 0 754 l 121 876 l 219 876 l 219 973 m 170 730 l 146 705 l 146 559 l 219 559 l 219 730 l 170 730 m 365 414 l 365 243 l 413 243 l 437 268 l 437 414 l 365 414 z "},"%":{"ha":970,"x_min":0,"x_max":899,"o":"m 121 972 l 267 972 l 389 850 l 389 607 l 267 486 l 121 486 l 0 607 l 0 850 l 121 972 m 650 972 l 819 972 l 258 -1 l 89 -1 l 650 972 m 170 826 l 146 802 l 146 656 l 170 631 l 218 631 l 243 656 l 243 802 l 218 826 l 170 826 m 632 486 l 778 486 l 899 364 l 899 121 l 778 -1 l 632 -1 l 511 121 l 511 364 l 632 486 m 681 340 l 656 315 l 656 170 l 681 145 l 729 145 l 753 170 l 753 315 l 729 340 l 681 340 z "},"&":{"ha":492,"x_min":0,"x_max":437,"o":"m 146 972 l 292 972 l 292 887 l 437 887 l 437 656 l 292 656 l 292 741 l 146 741 l 146 632 l 271 492 l 146 352 l 146 243 l 292 243 l 292 316 l 437 316 l 437 98 l 292 98 l 292 0 l 146 0 l 146 98 l 0 98 l 0 389 l 100 492 l 0 595 l 0 887 l 146 887 l 146 972 z "},"'":{"ha":216,"x_min":0,"x_max":146,"o":"m 0 973 l 146 973 l 146 681 l 0 827 l 0 973 z "},"(":{"ha":357,"x_min":0,"x_max":292,"o":"m 121 973 l 292 973 l 292 827 l 170 827 l 146 803 l 146 170 l 170 146 l 292 146 l 292 0 l 121 0 l 0 122 l 0 851 l 121 973 z "},")":{"ha":363,"x_min":0,"x_max":292,"o":"m 170 0 l 0 0 l 0 146 l 121 146 l 146 170 l 146 803 l 121 827 l 0 827 l 0 973 l 170 973 l 292 851 l 292 122 l 170 0 z "},"*":{"ha":509,"x_min":0,"x_max":438,"o":"m 170 972 l 268 972 l 268 870 l 340 942 l 408 873 l 336 802 l 438 802 l 438 704 l 336 704 l 408 633 l 340 564 l 268 635 l 268 534 l 170 534 l 170 635 l 99 564 l 30 633 l 102 704 l 0 704 l 0 802 l 102 802 l 30 873 l 99 942 l 170 870 l 170 972 z "},"+":{"ha":503,"x_min":0,"x_max":437,"o":"m 146 692 l 292 692 l 292 547 l 437 547 l 437 401 l 292 401 l 292 254 l 146 254 l 146 401 l 0 401 l 0 547 l 146 547 l 146 692 z "},",":{"ha":216,"x_min":0,"x_max":146,"o":"m 0 146 l 146 146 l 146 -146 l 0 0 l 0 146 z "},"-":{"ha":509,"x_min":0,"x_max":437,"o":"m 0 547 l 437 547 l 437 401 l 0 401 l 0 547 z "},".":{"ha":213,"x_min":0,"x_max":146,"o":"m 0 146 l 146 146 l 146 0 l 0 0 l 0 146 z "},"/":{"ha":481,"x_min":0,"x_max":412,"o":"m 260 972 l 412 972 l 151 0 l 0 0 l 260 972 z "},":":{"ha":213,"x_min":0,"x_max":146,"o":"m 0 656 l 146 656 l 146 509 l 0 509 l 0 656 m 0 291 l 146 291 l 146 145 l 0 145 l 0 291 z "},";":{"ha":214,"x_min":0,"x_max":146,"o":"m 0 656 l 146 656 l 146 510 l 0 510 l 0 656 m 0 291 l 146 291 l 146 -1 l 0 145 l 0 291 z "},"<":{"ha":517,"x_min":0,"x_max":450,"o":"m 281 972 l 450 972 l 168 486 l 450 0 l 281 0 l 0 486 l 281 972 z "},"=":{"ha":509,"x_min":0,"x_max":438,"o":"m 0 656 l 438 656 l 438 511 l 0 511 l 0 656 m 0 437 l 438 437 l 438 292 l 0 292 l 0 437 z "},">":{"ha":517,"x_min":0,"x_max":450,"o":"m 169 0 l 0 0 l 281 486 l 0 972 l 169 972 l 450 486 l 169 0 z "},"?":{"ha":507,"x_min":0,"x_max":437,"o":"m 73 146 l 218 146 l 218 0 l 73 0 l 73 146 m 0 973 l 437 973 l 437 681 l 218 219 l 73 219 l 292 681 l 292 827 l 146 827 l 146 657 l 0 657 l 0 973 z "},"@":{"ha":904,"x_min":0,"x_max":827,"o":"m 121 972 l 705 972 l 827 851 l 827 267 l 754 195 l 608 195 l 559 243 l 511 195 l 316 195 l 195 316 l 195 656 l 316 778 l 511 778 l 632 656 l 632 340 l 681 340 l 681 802 l 656 827 l 170 827 l 146 802 l 146 170 l 170 146 l 754 146 l 754 0 l 121 0 l 0 121 l 0 851 l 121 972 m 365 632 l 340 608 l 340 365 l 365 340 l 462 340 l 486 365 l 486 608 l 462 632 l 365 632 z "},"A":{"ha":511,"x_min":0,"x_max":437,"o":"m 121 972 l 437 972 l 437 0 l 292 0 l 292 365 l 146 218 l 146 0 l 0 0 l 0 243 l 292 535 l 292 827 l 170 827 l 146 802 l 146 462 l 0 316 l 0 851 l 121 972 z "},"B":{"ha":505,"x_min":1,"x_max":438,"o":"m 1 972 l 317 972 l 438 851 l 438 559 l 317 438 l 438 438 l 438 121 l 317 0 l 1 0 l 1 705 l 122 827 l 1 827 l 1 972 m 146 827 l 146 438 l 292 584 l 292 802 l 268 827 l 146 827 m 292 414 l 146 268 l 146 146 l 268 146 l 292 170 l 292 414 z "},"C":{"ha":499,"x_min":1,"x_max":439,"o":"m 123 973 l 439 973 l 439 803 l 317 681 l 293 681 l 293 827 l 171 827 l 146 803 l 146 170 l 171 146 l 293 146 l 293 170 l 414 292 l 439 292 l 439 122 l 317 0 l 123 0 l 1 122 l 1 851 l 123 973 z "},"D":{"ha":499,"x_min":0,"x_max":438,"o":"m 0 973 l 316 973 l 438 851 l 438 122 l 316 0 l 0 0 l 0 705 l 122 827 l 0 827 l 0 973 m 146 827 l 146 146 l 268 146 l 292 170 l 292 803 l 268 827 l 146 827 z "},"E":{"ha":422,"x_min":0,"x_max":365,"o":"m 0 972 l 365 972 l 365 802 l 243 681 l 219 681 l 219 827 l 146 827 l 146 462 l 292 608 l 292 437 l 146 292 l 146 146 l 219 146 l 219 170 l 340 292 l 365 292 l 365 0 l 0 0 l 0 972 z "},"F":{"ha":423,"x_min":0,"x_max":365,"o":"m 0 972 l 365 972 l 365 802 l 243 681 l 219 681 l 219 827 l 146 827 l 146 559 l 292 559 l 292 413 l 146 413 l 146 0 l 0 0 l 0 972 z "},"G":{"ha":499,"x_min":0,"x_max":438,"o":"m 122 972 l 438 972 l 438 802 l 316 681 l 292 681 l 292 827 l 170 827 l 146 802 l 146 170 l 170 146 l 292 146 l 292 414 l 219 414 l 219 437 l 340 559 l 438 559 l 438 0 l 122 0 l 0 121 l 0 851 l 122 972 z "},"H":{"ha":503,"x_min":0,"x_max":437,"o":"m 0 972 l 146 972 l 146 535 l 0 389 l 0 972 m 292 972 l 437 972 l 437 0 l 292 0 l 292 462 l 146 316 l 146 0 l 0 0 l 0 340 l 292 632 l 292 972 z "},"I":{"ha":207,"x_min":0,"x_max":146,"o":"m 0 972 l 146 972 l 146 121 l 24 0 l 0 0 l 0 972 z "},"J":{"ha":499,"x_min":1,"x_max":439,"o":"m 122 972 l 439 972 l 439 121 l 317 0 l 1 0 l 1 170 l 122 292 l 146 292 l 146 146 l 269 146 l 292 170 l 292 827 l 171 827 l 146 802 l 146 681 l 1 681 l 1 851 l 122 972 z "},"K":{"ha":509,"x_min":0,"x_max":485,"o":"m 0 972 l 146 972 l 146 785 l 0 532 l 0 972 m 317 972 l 485 972 l 204 486 l 485 0 l 317 0 l 146 295 l 146 0 l 0 0 l 0 425 l 317 972 z "},"L":{"ha":442,"x_min":0,"x_max":365,"o":"m 0 972 l 146 972 l 146 146 l 365 146 l 365 0 l 122 0 l 0 121 l 0 972 z "},"M":{"ha":703,"x_min":0,"x_max":632,"o":"m 0 973 l 195 973 l 316 365 l 438 973 l 632 973 l 632 0 l 486 0 l 486 556 l 389 0 l 243 0 l 146 556 l 146 122 l 24 0 l 0 0 l 0 973 z "},"N":{"ha":557,"x_min":0,"x_max":486,"o":"m 0 972 l 219 972 l 340 278 l 340 972 l 486 972 l 486 121 l 365 0 l 268 0 l 146 695 l 146 121 l 24 0 l 0 0 l 0 972 z "},"O":{"ha":509,"x_min":0,"x_max":437,"o":"m 121 973 l 437 973 l 437 122 l 316 0 l 0 0 l 0 851 l 121 973 m 170 827 l 146 803 l 146 268 l 24 146 l 267 146 l 292 170 l 292 705 l 414 827 l 170 827 z "},"P":{"ha":507,"x_min":0,"x_max":437,"o":"m 0 972 l 316 972 l 437 851 l 437 535 l 316 413 l 146 413 l 146 0 l 0 0 l 0 972 m 146 827 l 146 681 l 24 559 l 267 559 l 292 583 l 292 802 l 267 827 l 146 827 z "},"Q":{"ha":511,"x_min":0,"x_max":437,"o":"m 121 973 l 437 973 l 437 122 l 316 0 l 292 0 l 292 -146 l 146 -146 l 146 0 l 0 0 l 0 851 l 121 973 m 170 827 l 146 803 l 146 268 l 24 146 l 267 146 l 292 170 l 292 705 l 414 827 l 170 827 z "},"R":{"ha":503,"x_min":0,"x_max":437,"o":"m 0 973 l 316 973 l 437 851 l 437 559 l 377 498 l 437 438 l 437 0 l 292 0 l 292 414 l 146 268 l 146 0 l 0 0 l 0 292 l 292 584 l 292 803 l 267 827 l 146 827 l 146 486 l 0 340 l 0 973 z "},"S":{"ha":500,"x_min":0,"x_max":437,"o":"m 121 972 l 316 972 l 437 851 l 437 729 l 316 608 l 292 608 l 292 802 l 267 827 l 170 827 l 146 802 l 146 559 l 364 559 l 437 486 l 437 121 l 316 0 l 121 0 l 0 121 l 0 243 l 121 365 l 146 365 l 146 170 l 170 146 l 267 146 l 292 170 l 292 413 l 73 413 l 0 486 l 0 851 l 121 972 z "},"T":{"ha":492,"x_min":-34,"x_max":452,"o":"m -34 972 l 452 972 l 452 827 l 282 827 l 282 0 l 136 0 l 136 705 l 258 827 l -34 827 l -34 972 z "},"U":{"ha":509,"x_min":0,"x_max":437,"o":"m 0 972 l 24 972 l 146 851 l 146 146 l 292 146 l 292 851 l 413 972 l 437 972 l 437 121 l 316 0 l 0 0 l 0 972 z "},"V":{"ha":499,"x_min":0,"x_max":437,"o":"m 0 972 l 24 972 l 146 851 l 146 301 l 218 175 l 292 301 l 292 851 l 413 972 l 437 972 l 437 262 l 286 0 l 151 0 l 0 262 l 0 972 z "},"W":{"ha":833,"x_min":0,"x_max":753,"o":"m 0 972 l 24 972 l 146 851 l 146 146 l 292 399 l 292 851 l 462 851 l 462 399 l 608 146 l 608 851 l 730 972 l 753 972 l 753 0 l 524 0 l 377 254 l 230 0 l 0 0 l 0 972 z "},"X":{"ha":576,"x_min":0,"x_max":506,"o":"m 0 972 l 155 972 l 253 681 l 351 972 l 506 972 l 330 486 l 506 0 l 351 0 l 253 292 l 155 0 l 0 0 l 176 486 l 0 972 z "},"Y":{"ha":557,"x_min":1,"x_max":486,"o":"m 1 972 l 152 972 l 243 559 l 336 972 l 486 972 l 317 316 l 317 0 l 171 0 l 171 316 l 1 972 z "},"Z":{"ha":513,"x_min":0,"x_max":438,"o":"m 0 973 l 438 973 l 438 657 l 146 268 l 146 146 l 292 146 l 292 268 l 414 389 l 438 389 l 438 0 l 0 0 l 0 317 l 292 705 l 292 827 l 146 827 l 146 705 l 24 584 l 0 584 l 0 973 z "},"[":{"ha":362,"x_min":1,"x_max":293,"o":"m 1 973 l 293 973 l 293 827 l 146 827 l 146 146 l 293 146 l 293 0 l 1 0 l 1 973 z "},"\\":{"ha":481,"x_min":0,"x_max":412,"o":"m 151 972 l 412 0 l 260 0 l 0 972 l 151 972 z "},"]":{"ha":362,"x_min":1,"x_max":293,"o":"m 293 0 l 1 0 l 1 146 l 147 146 l 147 827 l 1 827 l 1 973 l 293 973 l 293 0 z "},"^":{"ha":427,"x_min":0,"x_max":365,"o":"m 122 972 l 243 972 l 365 753 l 219 753 l 182 827 l 146 753 l 0 753 l 122 972 z "},"_":{"ha":509,"x_min":0,"x_max":437,"o":"m 0 146 l 437 146 l 437 0 l 0 0 l 0 146 z "},"`":{"ha":311,"x_min":0,"x_max":243,"o":"m 0 972 l 121 972 l 243 753 l 97 753 l 0 972 z "},"a":{"ha":511,"x_min":0,"x_max":437,"o":"m 121 972 l 437 972 l 437 0 l 292 0 l 292 170 l 146 170 l 146 0 l 0 0 l 0 851 l 121 972 m 170 827 l 146 802 l 146 316 l 292 316 l 292 827 l 170 827 z "},"b":{"ha":507,"x_min":0,"x_max":437,"o":"m 0 973 l 316 973 l 437 851 l 437 559 l 376 498 l 437 438 l 437 122 l 316 0 l 0 0 l 0 973 m 146 827 l 146 559 l 267 559 l 292 584 l 292 803 l 267 827 l 146 827 m 146 414 l 146 146 l 267 146 l 292 170 l 292 389 l 267 414 l 146 414 z "},"c":{"ha":506,"x_min":0,"x_max":437,"o":"m 121 972 l 437 972 l 437 681 l 292 681 l 292 827 l 170 827 l 146 802 l 146 170 l 170 146 l 292 146 l 292 292 l 437 292 l 437 0 l 121 0 l 0 121 l 0 851 l 121 972 z "},"d":{"ha":506,"x_min":0,"x_max":438,"o":"m 0 973 l 316 973 l 438 851 l 438 122 l 316 0 l 0 0 l 0 973 m 146 827 l 146 146 l 268 146 l 292 170 l 292 803 l 268 827 l 146 827 z "},"e":{"ha":446,"x_min":0,"x_max":365,"o":"m 0 973 l 365 973 l 365 827 l 146 827 l 146 559 l 292 559 l 292 414 l 146 414 l 146 146 l 365 146 l 365 0 l 0 0 l 0 973 z "},"f":{"ha":434,"x_min":0,"x_max":365,"o":"m 0 972 l 365 972 l 365 827 l 146 827 l 146 559 l 292 559 l 292 414 l 146 414 l 146 0 l 0 0 l 0 972 z "},"g":{"ha":511,"x_min":0,"x_max":437,"o":"m 121 972 l 437 972 l 437 681 l 292 681 l 292 827 l 170 827 l 146 802 l 146 170 l 170 146 l 292 146 l 292 414 l 219 414 l 219 559 l 437 559 l 437 0 l 121 0 l 0 121 l 0 851 l 121 972 z "},"h":{"ha":508,"x_min":0,"x_max":437,"o":"m 0 972 l 146 972 l 146 559 l 292 559 l 292 972 l 437 972 l 437 0 l 292 0 l 292 414 l 146 414 l 146 0 l 0 0 l 0 972 z "},"i":{"ha":215,"x_min":0,"x_max":146,"o":"m 0 972 l 146 972 l 146 0 l 0 0 l 0 972 z "},"j":{"ha":507,"x_min":0,"x_max":437,"o":"m 121 973 l 437 973 l 437 122 l 316 0 l 0 0 l 0 292 l 146 292 l 146 146 l 267 146 l 292 170 l 292 827 l 170 827 l 146 803 l 146 681 l 0 681 l 0 851 l 121 973 z "},"k":{"ha":509,"x_min":1,"x_max":486,"o":"m 1 972 l 146 972 l 146 677 l 317 972 l 486 972 l 205 486 l 486 0 l 317 0 l 146 295 l 146 0 l 1 0 l 1 972 z "},"l":{"ha":425,"x_min":0,"x_max":364,"o":"m 0 972 l 146 972 l 146 146 l 364 146 l 364 0 l 0 0 l 0 972 z "},"m":{"ha":713,"x_min":0,"x_max":632,"o":"m 0 972 l 195 972 l 316 365 l 437 972 l 632 972 l 632 0 l 486 0 l 486 556 l 389 0 l 243 0 l 146 556 l 146 0 l 0 0 l 0 972 z "},"n":{"ha":556,"x_min":0,"x_max":486,"o":"m 0 972 l 218 972 l 340 278 l 340 972 l 486 972 l 486 0 l 267 0 l 146 694 l 146 0 l 0 0 l 0 972 z "},"o":{"ha":509,"x_min":0,"x_max":438,"o":"m 122 972 l 438 972 l 438 121 l 317 0 l 0 0 l 0 851 l 122 972 m 170 827 l 146 802 l 146 146 l 268 146 l 292 170 l 292 827 l 170 827 z "},"p":{"ha":506,"x_min":0,"x_max":437,"o":"m 0 972 l 316 972 l 437 851 l 437 535 l 316 413 l 146 413 l 146 0 l 0 0 l 0 972 m 146 827 l 146 559 l 267 559 l 292 583 l 292 802 l 267 827 l 146 827 z "},"q":{"ha":503,"x_min":0,"x_max":437,"o":"m 121 973 l 437 973 l 437 122 l 316 0 l 292 0 l 292 -146 l 146 -146 l 146 0 l 0 0 l 0 851 l 121 973 m 170 827 l 146 803 l 146 146 l 267 146 l 292 170 l 292 827 l 170 827 z "},"r":{"ha":504,"x_min":0,"x_max":438,"o":"m 0 972 l 316 972 l 438 851 l 438 559 l 377 498 l 438 437 l 438 0 l 292 0 l 292 389 l 268 413 l 146 413 l 146 0 l 0 0 l 0 972 m 146 827 l 146 559 l 292 559 l 292 802 l 268 827 l 146 827 z "},"s":{"ha":512,"x_min":0,"x_max":438,"o":"m 121 972 l 316 972 l 438 851 l 438 681 l 292 681 l 292 802 l 268 827 l 170 827 l 146 802 l 146 559 l 365 559 l 438 486 l 438 121 l 316 0 l 121 0 l 0 121 l 0 292 l 146 292 l 146 170 l 170 146 l 268 146 l 292 170 l 292 413 l 73 413 l 0 486 l 0 851 l 121 972 z "},"t":{"ha":492,"x_min":-34,"x_max":452,"o":"m -34 972 l 452 972 l 452 827 l 282 827 l 282 0 l 136 0 l 136 827 l -34 827 l -34 972 z "},"u":{"ha":507,"x_min":1,"x_max":438,"o":"m 1 972 l 146 972 l 146 146 l 292 146 l 292 972 l 438 972 l 438 0 l 1 0 l 1 972 z "},"v":{"ha":513,"x_min":0,"x_max":437,"o":"m 0 972 l 146 972 l 146 301 l 218 175 l 292 301 l 292 972 l 437 972 l 437 262 l 286 0 l 151 0 l 0 262 l 0 972 z "},"w":{"ha":825,"x_min":0,"x_max":754,"o":"m 0 972 l 146 972 l 146 146 l 292 398 l 292 972 l 462 972 l 462 398 l 608 146 l 608 972 l 754 972 l 754 0 l 524 0 l 377 254 l 230 0 l 0 0 l 0 972 z "},"x":{"ha":578,"x_min":0,"x_max":506,"o":"m 0 972 l 155 972 l 253 681 l 351 972 l 506 972 l 331 486 l 506 0 l 351 0 l 253 292 l 155 0 l 0 0 l 176 486 l 0 972 z "},"y":{"ha":509,"x_min":0,"x_max":486,"o":"m 0 972 l 151 972 l 243 559 l 334 972 l 486 972 l 315 316 l 315 0 l 170 0 l 170 316 l 0 972 z "},"z":{"ha":507,"x_min":0,"x_max":438,"o":"m 0 972 l 438 972 l 438 656 l 146 267 l 146 146 l 292 146 l 292 316 l 438 316 l 438 0 l 0 0 l 0 316 l 292 705 l 292 827 l 146 827 l 146 656 l 0 656 l 0 972 z "},"{":{"ha":458,"x_min":0,"x_max":389,"o":"m 219 972 l 389 972 l 389 827 l 267 827 l 243 802 l 243 535 l 195 486 l 243 437 l 243 170 l 267 146 l 389 146 l 389 0 l 219 0 l 97 121 l 97 389 l 0 486 l 97 583 l 97 851 l 219 972 z "},"|":{"ha":218,"x_min":1,"x_max":147,"o":"m 1 1117 l 147 1117 l 147 -147 l 1 -147 l 1 1117 z "},"}":{"ha":458,"x_min":0,"x_max":389,"o":"m 170 0 l 0 0 l 0 146 l 122 146 l 146 170 l 146 437 l 195 486 l 146 535 l 146 802 l 122 827 l 0 827 l 0 972 l 170 972 l 292 851 l 292 583 l 389 486 l 292 389 l 292 121 l 170 0 z "},"~":{"ha":563,"x_min":0,"x_max":498,"o":"m 121 973 l 243 973 l 304 865 l 353 973 l 498 973 l 377 754 l 219 754 l 182 827 l 146 754 l 0 754 l 121 973 z "},"¡":{"ha":216,"x_min":0,"x_max":146,"o":"m 146 827 l 0 827 l 0 972 l 146 972 l 146 827 m 146 0 l 0 0 l 0 705 l 49 754 l 146 754 l 146 0 z "},"¢":{"ha":656,"x_min":0,"x_max":584,"o":"m 219 972 l 365 972 l 365 876 l 584 876 l 584 584 l 438 584 l 438 730 l 365 730 l 365 243 l 438 243 l 438 389 l 584 389 l 584 98 l 365 98 l 365 0 l 219 0 l 219 98 l 122 98 l 0 219 l 0 754 l 122 876 l 219 876 l 219 972 m 170 730 l 146 705 l 146 268 l 170 243 l 219 243 l 219 730 l 170 730 z "},"£":{"ha":512,"x_min":0,"x_max":437,"o":"m 195 972 l 437 972 l 437 681 l 292 681 l 292 827 l 243 827 l 218 802 l 218 535 l 365 535 l 365 389 l 218 389 l 218 340 l 146 146 l 437 146 l 437 0 l 0 0 l 0 146 l 73 340 l 73 389 l 0 389 l 0 535 l 73 535 l 73 851 l 195 972 z "},"¥":{"ha":554,"x_min":0,"x_max":486,"o":"m 0 972 l 151 972 l 243 559 l 335 972 l 486 972 l 335 389 l 437 389 l 437 243 l 316 243 l 316 195 l 437 195 l 437 49 l 316 49 l 316 0 l 170 0 l 170 49 l 48 49 l 48 195 l 170 195 l 170 243 l 48 243 l 48 389 l 151 389 l 0 972 z "},"¦":{"ha":218,"x_min":1,"x_max":147,"o":"m 1 547 l 1 1117 l 147 1117 l 147 547 l 1 547 m 147 401 l 147 -147 l 1 -147 l 1 401 l 147 401 z "},"§":{"ha":658,"x_min":1,"x_max":585,"o":"m 122 973 l 463 973 l 585 851 l 585 754 l 438 754 l 438 803 l 414 827 l 171 827 l 146 803 l 146 656 l 511 656 l 585 584 l 585 122 l 463 0 l 122 0 l 1 122 l 1 219 l 146 219 l 146 170 l 171 146 l 414 146 l 438 170 l 438 316 l 74 316 l 1 389 l 1 851 l 122 973 m 146 511 l 146 463 l 438 463 l 438 511 l 146 511 z "},"¨":{"ha":410,"x_min":0,"x_max":340,"o":"m 0 924 l 146 924 l 146 778 l 0 778 l 0 924 m 195 924 l 340 924 l 340 778 l 195 778 l 195 924 z "},"©":{"ha":901,"x_min":1,"x_max":827,"o":"m 122 972 l 706 972 l 827 850 l 827 121 l 706 -1 l 122 -1 l 1 121 l 1 850 l 122 972 m 171 825 l 146 802 l 146 169 l 171 144 l 682 144 l 682 802 l 657 825 l 171 825 m 317 777 l 511 777 l 633 655 l 633 534 l 487 534 l 487 607 l 463 631 l 366 631 l 341 607 l 341 363 l 366 339 l 463 339 l 487 363 l 487 437 l 633 437 l 633 315 l 511 193 l 317 193 l 195 315 l 195 655 l 317 777 z "},"ª":{"ha":379,"x_min":0,"x_max":308,"o":"m 85 972 l 308 972 l 308 289 l 205 289 l 205 408 l 103 408 l 103 289 l 0 289 l 0 887 l 85 972 m 120 869 l 103 852 l 103 511 l 205 511 l 205 869 l 120 869 z "},"«":{"ha":759,"x_min":0,"x_max":692,"o":"m 524 972 l 692 972 l 412 486 l 692 0 l 524 0 l 243 486 l 524 972 m 281 972 l 450 972 l 168 486 l 450 0 l 281 0 l 0 486 l 281 972 z "},"®":{"ha":900,"x_min":1,"x_max":829,"o":"m 123 971 l 707 971 l 829 850 l 829 120 l 707 -1 l 123 -1 l 1 120 l 1 850 l 123 971 m 148 825 l 148 169 l 172 144 l 682 144 l 682 801 l 659 825 l 148 825 m 196 777 l 512 777 l 634 655 l 634 509 l 585 460 l 634 412 l 634 193 l 488 193 l 488 363 l 464 388 l 342 388 l 342 193 l 196 193 l 196 777 m 342 631 l 342 534 l 464 534 l 488 558 l 488 606 l 464 631 l 342 631 z "},"¯":{"ha":509,"x_min":-1,"x_max":437,"o":"m -1 972 l 437 972 l 437 827 l -1 827 l -1 972 z "},"°":{"ha":458,"x_min":0,"x_max":389,"o":"m 122 971 l 268 971 l 389 850 l 389 606 l 268 485 l 122 485 l 0 606 l 0 850 l 122 971 m 170 825 l 146 801 l 146 655 l 170 631 l 219 631 l 243 655 l 243 801 l 219 825 l 170 825 z "},"±":{"ha":509,"x_min":0,"x_max":437,"o":"m 0 146 l 437 146 l 437 0 l 0 0 l 0 146 m 146 692 l 292 692 l 292 547 l 437 547 l 437 401 l 292 401 l 292 254 l 146 254 l 146 401 l 0 401 l 0 547 l 146 547 l 146 692 z "},"²":{"ha":377,"x_min":0,"x_max":307,"o":"m 0 972 l 307 972 l 307 768 l 102 392 l 205 392 l 205 511 l 307 511 l 307 289 l 0 289 l 0 418 l 205 793 l 205 870 l 102 870 l 102 751 l 0 751 l 0 972 z "},"³":{"ha":370,"x_min":0,"x_max":308,"o":"m 0 972 l 308 972 l 308 768 l 233 631 l 308 494 l 308 290 l 0 290 l 0 511 l 102 511 l 102 392 l 205 392 l 205 469 l 117 631 l 205 793 l 205 870 l 102 870 l 102 751 l 0 751 l 0 972 z "},"´":{"ha":311,"x_min":0,"x_max":243,"o":"m 98 972 l 243 972 l 121 753 l 0 753 l 98 972 z "},"·":{"ha":213,"x_min":0,"x_max":146,"o":"m 0 554 l 146 554 l 146 408 l 0 408 l 0 554 z "},"¹":{"ha":258,"x_min":0,"x_max":188,"o":"m 85 972 l 188 972 l 188 290 l 85 290 l 85 887 l 0 887 l 85 972 z "},"º":{"ha":378,"x_min":1,"x_max":308,"o":"m 86 972 l 308 972 l 308 374 l 222 289 l 1 289 l 1 887 l 86 972 m 120 870 l 103 853 l 103 391 l 189 391 l 205 409 l 205 870 l 120 870 z "},"»":{"ha":759,"x_min":0,"x_max":692,"o":"m 168 0 l 0 0 l 281 486 l 0 972 l 168 972 l 449 486 l 168 0 m 412 0 l 243 0 l 524 486 l 243 972 l 412 972 l 692 486 l 412 0 z "},"¿":{"ha":507,"x_min":0,"x_max":437,"o":"m 365 827 l 219 827 l 219 973 l 365 973 l 365 827 m 437 0 l 0 0 l 0 292 l 219 754 l 365 754 l 146 292 l 146 146 l 292 146 l 292 316 l 437 316 l 437 0 z "},"À":{"ha":511,"x_min":0,"x_max":437,"o":"m 121 972 l 437 972 l 437 0 l 292 0 l 292 365 l 146 218 l 146 0 l 0 0 l 0 243 l 292 535 l 292 827 l 170 827 l 146 802 l 146 462 l 0 316 l 0 851 l 121 972 m 94 1286 l 215 1286 l 336 1067 l 191 1067 l 94 1286 z "},"Á":{"ha":511,"x_min":0,"x_max":437,"o":"m 121 972 l 437 972 l 437 0 l 292 0 l 292 365 l 146 218 l 146 0 l 0 0 l 0 243 l 292 535 l 292 827 l 170 827 l 146 802 l 146 462 l 0 316 l 0 851 l 121 972 m 276 1286 l 422 1286 l 300 1067 l 178 1067 l 276 1286 z "},"Â":{"ha":511,"x_min":0,"x_max":437,"o":"m 121 972 l 437 972 l 437 0 l 292 0 l 292 365 l 146 218 l 146 0 l 0 0 l 0 243 l 292 535 l 292 827 l 170 827 l 146 802 l 146 462 l 0 316 l 0 851 l 121 972 m 163 1286 l 285 1286 l 406 1067 l 260 1067 l 223 1141 l 187 1067 l 41 1067 l 163 1286 z "},"Ã":{"ha":511,"x_min":0,"x_max":500,"o":"m 121 972 l 437 972 l 437 0 l 292 0 l 292 365 l 146 218 l 146 0 l 0 0 l 0 243 l 292 535 l 292 827 l 170 827 l 146 802 l 146 462 l 0 316 l 0 851 l 121 972 m 123 1286 l 245 1286 l 306 1178 l 354 1286 l 500 1286 l 378 1067 l 221 1067 l 183 1141 l 148 1067 l 1 1067 l 123 1286 z "},"Ä":{"ha":511,"x_min":0,"x_max":437,"o":"m 121 972 l 437 972 l 437 0 l 292 0 l 292 365 l 146 218 l 146 0 l 0 0 l 0 243 l 292 535 l 292 827 l 170 827 l 146 802 l 146 462 l 0 316 l 0 851 l 121 972 m 54 1238 l 199 1238 l 199 1092 l 54 1092 l 54 1238 m 248 1238 l 394 1238 l 394 1092 l 248 1092 l 248 1238 z "},"Å":{"ha":511,"x_min":0,"x_max":437,"o":"m 121 972 l 437 972 l 437 0 l 292 0 l 292 365 l 146 218 l 146 0 l 0 0 l 0 243 l 292 535 l 292 827 l 170 827 l 146 802 l 146 462 l 0 316 l 0 851 l 121 972 m 166 1335 l 285 1335 l 384 1236 l 384 1118 l 285 1019 l 166 1019 l 68 1118 l 68 1236 l 166 1335 m 206 1216 l 186 1196 l 186 1157 l 206 1137 l 245 1137 l 265 1157 l 265 1196 l 245 1216 l 206 1216 z "},"Æ":{"ha":798,"x_min":0,"x_max":725,"o":"m 292 0 l 292 365 l 146 218 l 146 0 l 0 0 l 0 243 l 292 535 l 292 827 l 170 827 l 146 802 l 146 462 l 0 316 l 0 851 l 121 972 l 360 972 l 360 973 l 725 973 l 725 803 l 604 681 l 579 681 l 579 827 l 506 827 l 506 463 l 652 608 l 652 438 l 506 292 l 506 146 l 579 146 l 579 170 l 701 292 l 725 292 l 725 0 l 292 0 z "},"Ç":{"ha":511,"x_min":0,"x_max":437,"o":"m 121 973 l 437 973 l 437 827 l 170 827 l 146 803 l 146 389 l 170 365 l 437 365 l 437 219 l 365 219 l 365 0 l 73 0 l 73 146 l 219 146 l 219 219 l 121 219 l 0 340 l 0 851 l 121 973 z "},"È":{"ha":422,"x_min":0,"x_max":365,"o":"m 0 972 l 365 972 l 365 802 l 243 681 l 219 681 l 219 827 l 146 827 l 146 462 l 292 608 l 292 437 l 146 292 l 146 146 l 219 146 l 219 170 l 340 292 l 365 292 l 365 0 l 0 0 l 0 972 m 55 1286 l 177 1286 l 298 1067 l 153 1067 l 55 1286 z "},"É":{"ha":422,"x_min":0,"x_max":365,"o":"m 0 972 l 365 972 l 365 802 l 243 681 l 219 681 l 219 827 l 146 827 l 146 462 l 292 608 l 292 437 l 146 292 l 146 146 l 219 146 l 219 170 l 340 292 l 365 292 l 365 0 l 0 0 l 0 972 m 190 1286 l 336 1286 l 214 1067 l 93 1067 l 190 1286 z "},"Ê":{"ha":422,"x_min":0,"x_max":365,"o":"m 0 972 l 365 972 l 365 802 l 243 681 l 219 681 l 219 827 l 146 827 l 146 462 l 292 608 l 292 437 l 146 292 l 146 146 l 219 146 l 219 170 l 340 292 l 365 292 l 365 0 l 0 0 l 0 972 m 121 1286 l 243 1286 l 365 1067 l 219 1067 l 182 1140 l 146 1067 l 0 1067 l 121 1286 z "},"Ë":{"ha":422,"x_min":0,"x_max":365,"o":"m 0 972 l 365 972 l 365 802 l 243 681 l 219 681 l 219 827 l 146 827 l 146 462 l 292 608 l 292 437 l 146 292 l 146 146 l 219 146 l 219 170 l 340 292 l 365 292 l 365 0 l 0 0 l 0 972 m 11 1237 l 157 1237 l 157 1091 l 11 1091 l 11 1237 m 205 1237 l 351 1237 l 351 1091 l 205 1091 l 205 1237 z "},"Ì":{"ha":207,"x_min":-92,"x_max":151,"o":"m 0 972 l 146 972 l 146 121 l 24 0 l 0 0 l 0 972 m -92 1286 l 29 1286 l 151 1068 l 5 1068 l -92 1286 z "},"Í":{"ha":207,"x_min":0,"x_max":258,"o":"m 0 972 l 146 972 l 146 121 l 24 0 l 0 0 l 0 972 m 112 1286 l 258 1286 l 136 1068 l 15 1068 l 112 1286 z "},"Î":{"ha":207,"x_min":-107,"x_max":258,"o":"m 0 972 l 146 972 l 146 121 l 24 0 l 0 0 l 0 972 m 14 1287 l 136 1287 l 258 1068 l 112 1068 l 75 1141 l 39 1068 l -107 1068 l 14 1287 z "},"Ï":{"ha":207,"x_min":-90,"x_max":251,"o":"m 0 972 l 146 972 l 146 121 l 24 0 l 0 0 l 0 972 m -90 1238 l 56 1238 l 56 1093 l -90 1093 l -90 1238 m 104 1238 l 251 1238 l 251 1093 l 104 1093 l 104 1238 z "},"Ð":{"ha":597,"x_min":0,"x_max":523,"o":"m 231 367 l 231 146 l 353 146 l 377 170 l 377 803 l 353 827 l 231 827 l 231 513 l 305 513 l 305 367 l 231 367 m 85 513 l 85 705 l 207 827 l 85 827 l 85 973 l 401 973 l 523 851 l 523 122 l 401 0 l 85 0 l 85 367 l 0 367 l 0 513 l 85 513 z "},"Ñ":{"ha":557,"x_min":0,"x_max":500,"o":"m 0 972 l 219 972 l 340 278 l 340 972 l 486 972 l 486 121 l 365 0 l 268 0 l 146 695 l 146 121 l 24 0 l 0 0 l 0 972 m 123 1288 l 245 1288 l 305 1179 l 353 1288 l 500 1288 l 378 1068 l 220 1068 l 183 1141 l 147 1068 l 1 1068 l 123 1288 z "},"Ò":{"ha":509,"x_min":0,"x_max":437,"o":"m 121 973 l 437 973 l 437 122 l 316 0 l 0 0 l 0 851 l 121 973 m 170 827 l 146 803 l 146 268 l 24 146 l 267 146 l 292 170 l 292 705 l 414 827 l 170 827 m 97 1286 l 218 1286 l 340 1067 l 194 1067 l 97 1286 z "},"Ó":{"ha":509,"x_min":0,"x_max":437,"o":"m 121 973 l 437 973 l 437 122 l 316 0 l 0 0 l 0 851 l 121 973 m 170 827 l 146 803 l 146 268 l 24 146 l 267 146 l 292 170 l 292 705 l 414 827 l 170 827 m 241 1286 l 387 1286 l 265 1067 l 144 1067 l 241 1286 z "},"Ô":{"ha":509,"x_min":0,"x_max":437,"o":"m 121 973 l 437 973 l 437 122 l 316 0 l 0 0 l 0 851 l 121 973 m 170 827 l 146 803 l 146 268 l 24 146 l 267 146 l 292 170 l 292 705 l 414 827 l 170 827 m 157 1286 l 278 1286 l 399 1067 l 254 1067 l 216 1141 l 181 1067 l 35 1067 l 157 1286 z "},"Õ":{"ha":509,"x_min":-22,"x_max":477,"o":"m 121 973 l 437 973 l 437 122 l 316 0 l 0 0 l 0 851 l 121 973 m 170 827 l 146 803 l 146 268 l 24 146 l 267 146 l 292 170 l 292 705 l 414 827 l 170 827 m 100 1286 l 222 1286 l 283 1178 l 331 1286 l 477 1286 l 355 1067 l 198 1067 l 161 1141 l 125 1067 l -22 1067 l 100 1286 z "},"Ö":{"ha":509,"x_min":0,"x_max":437,"o":"m 121 973 l 437 973 l 437 122 l 316 0 l 0 0 l 0 851 l 121 973 m 170 827 l 146 803 l 146 268 l 24 146 l 267 146 l 292 170 l 292 705 l 414 827 l 170 827 m 56 1238 l 202 1238 l 202 1092 l 56 1092 l 56 1238 m 251 1238 l 397 1238 l 397 1092 l 251 1092 l 251 1238 z "},"×":{"ha":484,"x_min":0,"x_max":412,"o":"m 103 680 l 206 576 l 309 680 l 412 576 l 309 473 l 412 370 l 309 267 l 206 370 l 103 267 l 0 370 l 103 473 l 0 576 l 103 680 z "},"Ù":{"ha":509,"x_min":0,"x_max":437,"o":"m 0 972 l 24 972 l 146 851 l 146 146 l 292 146 l 292 851 l 413 972 l 437 972 l 437 121 l 316 0 l 0 0 l 0 972 m 52 1286 l 173 1286 l 294 1067 l 149 1067 l 52 1286 z "},"Ú":{"ha":509,"x_min":0,"x_max":437,"o":"m 0 972 l 24 972 l 146 851 l 146 146 l 292 146 l 292 851 l 413 972 l 437 972 l 437 121 l 316 0 l 0 0 l 0 972 m 262 1286 l 408 1286 l 287 1068 l 165 1068 l 262 1286 z "},"Û":{"ha":509,"x_min":0,"x_max":437,"o":"m 0 972 l 24 972 l 146 851 l 146 146 l 292 146 l 292 851 l 413 972 l 437 972 l 437 121 l 316 0 l 0 0 l 0 972 m 155 1286 l 277 1286 l 399 1068 l 253 1068 l 215 1141 l 180 1068 l 34 1068 l 155 1286 z "},"Ü":{"ha":509,"x_min":0,"x_max":437,"o":"m 0 972 l 24 972 l 146 851 l 146 146 l 292 146 l 292 851 l 413 972 l 437 972 l 437 121 l 316 0 l 0 0 l 0 972 m 50 1238 l 196 1238 l 196 1092 l 50 1092 l 50 1238 m 245 1238 l 391 1238 l 391 1092 l 245 1092 l 245 1238 z "},"Ý":{"ha":557,"x_min":1,"x_max":486,"o":"m 1 972 l 152 972 l 243 559 l 336 972 l 486 972 l 317 316 l 317 0 l 171 0 l 171 316 l 1 972 m 284 1286 l 430 1286 l 309 1067 l 186 1067 l 284 1286 z "},"à":{"ha":511,"x_min":0,"x_max":437,"o":"m 121 972 l 437 972 l 437 0 l 292 0 l 292 170 l 146 170 l 146 0 l 0 0 l 0 851 l 121 972 m 170 827 l 146 802 l 146 316 l 292 316 l 292 827 l 170 827 m 94 1286 l 215 1286 l 336 1067 l 191 1067 l 94 1286 z "},"á":{"ha":511,"x_min":0,"x_max":437,"o":"m 121 972 l 437 972 l 437 0 l 292 0 l 292 170 l 146 170 l 146 0 l 0 0 l 0 851 l 121 972 m 170 827 l 146 802 l 146 316 l 292 316 l 292 827 l 170 827 m 276 1286 l 422 1286 l 300 1067 l 178 1067 l 276 1286 z "},"â":{"ha":511,"x_min":0,"x_max":437,"o":"m 121 972 l 437 972 l 437 0 l 292 0 l 292 170 l 146 170 l 146 0 l 0 0 l 0 851 l 121 972 m 170 827 l 146 802 l 146 316 l 292 316 l 292 827 l 170 827 m 163 1286 l 285 1286 l 406 1067 l 260 1067 l 223 1141 l 187 1067 l 41 1067 l 163 1286 z "},"ã":{"ha":511,"x_min":0,"x_max":500,"o":"m 121 972 l 437 972 l 437 0 l 292 0 l 292 170 l 146 170 l 146 0 l 0 0 l 0 851 l 121 972 m 170 827 l 146 802 l 146 316 l 292 316 l 292 827 l 170 827 m 123 1286 l 245 1286 l 306 1178 l 354 1286 l 500 1286 l 378 1067 l 221 1067 l 183 1141 l 148 1067 l 1 1067 l 123 1286 z "},"ä":{"ha":511,"x_min":0,"x_max":437,"o":"m 121 972 l 437 972 l 437 0 l 292 0 l 292 170 l 146 170 l 146 0 l 0 0 l 0 851 l 121 972 m 170 827 l 146 802 l 146 316 l 292 316 l 292 827 l 170 827 m 54 1238 l 199 1238 l 199 1092 l 54 1092 l 54 1238 m 248 1238 l 394 1238 l 394 1092 l 248 1092 l 248 1238 z "},"å":{"ha":511,"x_min":0,"x_max":437,"o":"m 121 972 l 437 972 l 437 0 l 292 0 l 292 170 l 146 170 l 146 0 l 0 0 l 0 851 l 121 972 m 170 827 l 146 802 l 146 316 l 292 316 l 292 827 l 170 827 m 166 1335 l 285 1335 l 384 1236 l 384 1118 l 285 1019 l 166 1019 l 68 1118 l 68 1236 l 166 1335 m 206 1216 l 186 1196 l 186 1157 l 206 1137 l 245 1137 l 265 1157 l 265 1196 l 245 1216 l 206 1216 z "},"æ":{"ha":806,"x_min":0,"x_max":733,"o":"m 170 827 l 146 802 l 146 316 l 292 316 l 292 827 l 170 827 m 437 1 l 437 0 l 292 0 l 292 170 l 146 170 l 146 0 l 0 0 l 0 851 l 121 972 l 368 972 l 368 973 l 733 973 l 733 827 l 514 827 l 514 559 l 660 559 l 660 414 l 514 414 l 514 146 l 733 146 l 733 1 l 437 1 z "},"ç":{"ha":511,"x_min":0,"x_max":437,"o":"m 121 973 l 437 973 l 437 827 l 170 827 l 146 803 l 146 389 l 170 365 l 437 365 l 437 219 l 365 219 l 365 0 l 73 0 l 73 146 l 219 146 l 219 219 l 121 219 l 0 340 l 0 851 l 121 973 z "},"è":{"ha":446,"x_min":0,"x_max":365,"o":"m 0 973 l 365 973 l 365 827 l 146 827 l 146 559 l 292 559 l 292 414 l 146 414 l 146 146 l 365 146 l 365 0 l 0 0 l 0 973 m 55 1286 l 177 1286 l 298 1067 l 153 1067 l 55 1286 z "},"é":{"ha":446,"x_min":0,"x_max":365,"o":"m 0 973 l 365 973 l 365 827 l 146 827 l 146 559 l 292 559 l 292 414 l 146 414 l 146 146 l 365 146 l 365 0 l 0 0 l 0 973 m 190 1286 l 336 1286 l 214 1067 l 93 1067 l 190 1286 z "},"ê":{"ha":446,"x_min":0,"x_max":365,"o":"m 0 973 l 365 973 l 365 827 l 146 827 l 146 559 l 292 559 l 292 414 l 146 414 l 146 146 l 365 146 l 365 0 l 0 0 l 0 973 m 121 1286 l 243 1286 l 365 1067 l 219 1067 l 182 1140 l 146 1067 l 0 1067 l 121 1286 z "},"ë":{"ha":446,"x_min":0,"x_max":365,"o":"m 0 973 l 365 973 l 365 827 l 146 827 l 146 559 l 292 559 l 292 414 l 146 414 l 146 146 l 365 146 l 365 0 l 0 0 l 0 973 m 11 1237 l 157 1237 l 157 1091 l 11 1091 l 11 1237 m 205 1237 l 351 1237 l 351 1091 l 205 1091 l 205 1237 z "},"ì":{"ha":215,"x_min":-92,"x_max":151,"o":"m 0 972 l 146 972 l 146 0 l 0 0 l 0 972 m -92 1286 l 29 1286 l 151 1068 l 5 1068 l -92 1286 z "},"í":{"ha":215,"x_min":0,"x_max":258,"o":"m 0 972 l 146 972 l 146 0 l 0 0 l 0 972 m 112 1286 l 258 1286 l 136 1068 l 15 1068 l 112 1286 z "},"î":{"ha":215,"x_min":-107,"x_max":258,"o":"m 0 972 l 146 972 l 146 0 l 0 0 l 0 972 m 14 1287 l 136 1287 l 258 1068 l 112 1068 l 75 1141 l 39 1068 l -107 1068 l 14 1287 z "},"ï":{"ha":215,"x_min":-90,"x_max":251,"o":"m 0 972 l 146 972 l 146 0 l 0 0 l 0 972 m -90 1238 l 56 1238 l 56 1093 l -90 1093 l -90 1238 m 104 1238 l 251 1238 l 251 1093 l 104 1093 l 104 1238 z "},"ñ":{"ha":556,"x_min":0,"x_max":500,"o":"m 0 972 l 218 972 l 340 278 l 340 972 l 486 972 l 486 0 l 267 0 l 146 694 l 146 0 l 0 0 l 0 972 m 123 1288 l 245 1288 l 305 1179 l 353 1288 l 500 1288 l 378 1068 l 220 1068 l 183 1141 l 147 1068 l 1 1068 l 123 1288 z "},"ò":{"ha":509,"x_min":0,"x_max":438,"o":"m 122 972 l 438 972 l 438 121 l 317 0 l 0 0 l 0 851 l 122 972 m 170 827 l 146 802 l 146 146 l 268 146 l 292 170 l 292 827 l 170 827 m 97 1286 l 218 1286 l 340 1067 l 194 1067 l 97 1286 z "},"ó":{"ha":509,"x_min":0,"x_max":438,"o":"m 122 972 l 438 972 l 438 121 l 317 0 l 0 0 l 0 851 l 122 972 m 170 827 l 146 802 l 146 146 l 268 146 l 292 170 l 292 827 l 170 827 m 241 1286 l 387 1286 l 265 1067 l 144 1067 l 241 1286 z "},"ô":{"ha":509,"x_min":0,"x_max":438,"o":"m 122 972 l 438 972 l 438 121 l 317 0 l 0 0 l 0 851 l 122 972 m 170 827 l 146 802 l 146 146 l 268 146 l 292 170 l 292 827 l 170 827 m 157 1286 l 278 1286 l 399 1067 l 254 1067 l 216 1141 l 181 1067 l 35 1067 l 157 1286 z "},"õ":{"ha":509,"x_min":-22,"x_max":477,"o":"m 122 972 l 438 972 l 438 121 l 317 0 l 0 0 l 0 851 l 122 972 m 170 827 l 146 802 l 146 146 l 268 146 l 292 170 l 292 827 l 170 827 m 100 1286 l 222 1286 l 283 1178 l 331 1286 l 477 1286 l 355 1067 l 198 1067 l 161 1141 l 125 1067 l -22 1067 l 100 1286 z "},"ö":{"ha":509,"x_min":0,"x_max":438,"o":"m 122 972 l 438 972 l 438 121 l 317 0 l 0 0 l 0 851 l 122 972 m 170 827 l 146 802 l 146 146 l 268 146 l 292 170 l 292 827 l 170 827 m 56 1238 l 202 1238 l 202 1092 l 56 1092 l 56 1238 m 251 1238 l 397 1238 l 397 1092 l 251 1092 l 251 1238 z "},"÷":{"ha":509,"x_min":0,"x_max":437,"o":"m 0 547 l 437 547 l 437 401 l 0 401 l 0 547 m 149 730 l 296 730 l 296 584 l 149 584 l 149 730 m 149 366 l 296 366 l 296 220 l 149 220 l 149 366 z "},"ù":{"ha":507,"x_min":1,"x_max":438,"o":"m 1 972 l 146 972 l 146 146 l 292 146 l 292 972 l 438 972 l 438 0 l 1 0 l 1 972 m 52 1286 l 173 1286 l 294 1067 l 149 1067 l 52 1286 z "},"ú":{"ha":507,"x_min":1,"x_max":438,"o":"m 1 972 l 146 972 l 146 146 l 292 146 l 292 972 l 438 972 l 438 0 l 1 0 l 1 972 m 262 1286 l 408 1286 l 287 1068 l 165 1068 l 262 1286 z "},"û":{"ha":507,"x_min":1,"x_max":438,"o":"m 1 972 l 146 972 l 146 146 l 292 146 l 292 972 l 438 972 l 438 0 l 1 0 l 1 972 m 155 1286 l 277 1286 l 399 1068 l 253 1068 l 215 1141 l 180 1068 l 34 1068 l 155 1286 z "},"ü":{"ha":507,"x_min":1,"x_max":438,"o":"m 1 972 l 146 972 l 146 146 l 292 146 l 292 972 l 438 972 l 438 0 l 1 0 l 1 972 m 50 1238 l 196 1238 l 196 1092 l 50 1092 l 50 1238 m 245 1238 l 391 1238 l 391 1092 l 245 1092 l 245 1238 z "},"ý":{"ha":557,"x_min":1,"x_max":486,"o":"m 1 972 l 152 972 l 243 559 l 336 972 l 486 972 l 317 316 l 317 0 l 171 0 l 171 316 l 1 972 m 284 1286 l 430 1286 l 309 1067 l 186 1067 l 284 1286 z "},"ÿ":{"ha":557,"x_min":1,"x_max":486,"o":"m 1 972 l 152 972 l 243 559 l 336 972 l 486 972 l 317 316 l 317 0 l 171 0 l 171 316 l 1 972 m 75 1238 l 222 1238 l 222 1092 l 75 1092 l 75 1238 m 270 1238 l 416 1238 l 416 1092 l 270 1092 l 270 1238 z "},"˚":{"ha":386,"x_min":0,"x_max":316,"o":"m 99 972 l 218 972 l 316 873 l 316 755 l 218 656 l 99 656 l 0 755 l 0 873 l 99 972 m 138 854 l 119 834 l 119 795 l 138 775 l 178 775 l 198 795 l 198 834 l 178 854 l 138 854 z "},"–":{"ha":814,"x_min":0,"x_max":747,"o":"m 0 547 l 747 547 l 747 401 l 0 401 l 0 547 z "},"—":{"ha":1102,"x_min":0,"x_max":1019,"o":"m 0 547 l 1019 547 l 1019 401 l 0 401 l 0 547 z "},"‘":{"ha":216,"x_min":0,"x_max":146,"o":"m 0 973 l 146 973 l 146 681 l 0 827 l 0 973 z "},"’":{"ha":216,"x_min":0,"x_max":146,"o":"m 146 973 l 146 827 l 0 681 l 0 973 l 146 973 z "},"‚":{"ha":216,"x_min":0,"x_max":146,"o":"m 146 133 l 146 -13 l 0 -159 l 0 133 l 146 133 z "},"“":{"ha":385,"x_min":0,"x_max":317,"o":"m 170 973 l 317 973 l 317 681 l 170 827 l 170 973 m 0 973 l 146 973 l 146 681 l 0 827 l 0 973 z "},"”":{"ha":385,"x_min":0,"x_max":317,"o":"m 146 973 l 146 827 l 0 681 l 0 973 l 146 973 m 317 973 l 317 827 l 170 681 l 170 973 l 317 973 z "},"„":{"ha":385,"x_min":1,"x_max":317,"o":"m 146 132 l 146 -14 l 1 -160 l 1 132 l 146 132 m 317 132 l 317 -14 l 171 -160 l 171 132 l 317 132 z "},"•":{"ha":694,"x_min":202,"x_max":502,"o":"m 352 203 q 246 248 290 203 q 202 353 202 292 q 246 459 202 415 q 352 503 290 503 q 458 459 414 503 q 502 353 502 415 q 458 248 502 292 q 352 203 414 203 z "},"…":{"ha":760,"x_min":0,"x_max":690,"o":"m 0 146 l 146 146 l 146 0 l 0 0 l 0 146 m 276 146 l 422 146 l 422 0 l 276 0 l 276 146 m 545 146 l 690 146 l 690 0 l 545 0 l 545 146 z "},"‹":{"ha":517,"x_min":0,"x_max":450,"o":"m 281 972 l 450 972 l 168 486 l 450 0 l 281 0 l 0 486 l 281 972 z "},"›":{"ha":517,"x_min":0,"x_max":450,"o":"m 169 0 l 0 0 l 281 486 l 0 972 l 169 972 l 450 486 l 169 0 z "},"€":{"ha":554,"x_min":0,"x_max":486,"o":"m 170 973 l 486 973 l 486 681 l 340 681 l 340 827 l 219 827 l 195 803 l 195 657 l 292 657 l 292 511 l 195 511 l 195 463 l 292 463 l 292 317 l 195 317 l 195 170 l 219 146 l 340 146 l 340 292 l 486 292 l 486 0 l 170 0 l 49 122 l 49 317 l 0 317 l 0 463 l 49 463 l 49 511 l 0 511 l 0 657 l 49 657 l 49 851 l 170 973 z "},"∑":{"ha":511,"x_min":0,"x_max":438,"o":"m 146 972 l 292 972 l 292 887 l 438 887 l 438 656 l 292 656 l 292 741 l 146 741 l 146 632 l 271 492 l 146 352 l 146 243 l 292 243 l 292 316 l 438 316 l 438 97 l 292 97 l 292 0 l 146 0 l 146 97 l 0 97 l 0 389 l 100 492 l 0 595 l 0 887 l 146 887 l 146 972 z "}}}
